<svg xmlns="http://www.w3.org/2000/svg" viewBox="0 0 40 40" fill="none">
  <rect width="40" height="40" rx="8" fill="#1e3a5f"/>
  <rect x="11" y="11" width="18" height="18" rx="3" fill="#2563eb" stroke="#3b82f6" stroke-width="1.5"/>
  <rect x="14" y="14" width="12" height="12" rx="1.5" fill="#1d4ed8"/>
  <rect x="16" y="16" width="8" height="8" rx="1" fill="#60a5fa"/>
  <!-- pins top/bottom -->
  <rect x="14" y="8" width="2" height="3" rx="0.5" fill="#3b82f6"/>
  <rect x="18" y="8" width="2" height="3" rx="0.5" fill="#3b82f6"/>
  <rect x="22" y="8" width="2" height="3" rx="0.5" fill="#3b82f6"/>
  <rect x="14" y="29" width="2" height="3" rx="0.5" fill="#3b82f6"/>
  <rect x="18" y="29" width="2" height="3" rx="0.5" fill="#3b82f6"/>
  <rect x="22" y="29" width="2" height="3" rx="0.5" fill="#3b82f6"/>
  <!-- pins left/right -->
  <rect x="8" y="14" width="3" height="2" rx="0.5" fill="#3b82f6"/>
  <rect x="8" y="18" width="3" height="2" rx="0.5" fill="#3b82f6"/>
  <rect x="8" y="22" width="3" height="2" rx="0.5" fill="#3b82f6"/>
  <rect x="29" y="14" width="3" height="2" rx="0.5" fill="#3b82f6"/>
  <rect x="29" y="18" width="3" height="2" rx="0.5" fill="#3b82f6"/>
  <rect x="29" y="22" width="3" height="2" rx="0.5" fill="#3b82f6"/>
</svg>