<svg xmlns="http://www.w3.org/2000/svg" viewBox="0 0 40 40" fill="none">
  <rect width="40" height="40" rx="8" fill="#0a0a1a"/>
  <!-- fan body -->
  <circle cx="20" cy="20" r="14" fill="#1e1b4b" stroke="#6366f1" stroke-width="1.2"/>
  <!-- blades -->
  <path d="M20 6 C23 10 23 14 20 16 C18 14 18 10 20 6" fill="#4338ca" opacity="0.9"/>
  <path d="M34 20 C30 23 26 23 24 20 C26 18 30 18 34 20" fill="#4338ca" opacity="0.9"/>
  <path d="M20 34 C17 30 17 26 20 24 C22 26 22 30 20 34" fill="#4338ca" opacity="0.9"/>
  <path d="M6 20 C10 17 14 17 16 20 C14 22 10 22 6 20" fill="#4338ca" opacity="0.9"/>
  <!-- diagonal blades -->
  <path d="M10 10 C13 14 13 17 11 19 C9 17 9 13 10 10" fill="#3730a3" opacity="0.8"/>
  <path d="M30 10 C27 14 24 15 22 13 C24 11 27 9 30 10" fill="#3730a3" opacity="0.8"/>
  <path d="M30 30 C27 26 27 23 29 21 C31 23 31 27 30 30" fill="#3730a3" opacity="0.8"/>
  <path d="M10 30 C13 26 16 25 18 27 C16 29 13 31 10 30" fill="#3730a3" opacity="0.8"/>
  <!-- hub -->
  <circle cx="20" cy="20" r="5" fill="#312e81" stroke="#818cf8" stroke-width="1"/>
  <circle cx="20" cy="20" r="2" fill="#4338ca"/>
</svg>